<svg width="16" height="16" viewBox="0 0 16 16" fill="none" xmlns="http://www.w3.org/2000/svg">
<path d="M6.95502 0.3125C6.91335 1.91667 6.45502 3.29167 5.58002 4.4375L3.14252 2C4.24668 1.08333 5.51752 0.520833 6.95502 0.3125ZM8.08002 6.9375L6.64252 5.5C7.83002 4.04167 8.43418 2.29167 8.45502 0.25C10.1842 0.333333 11.705 0.916667 13.0175 2L8.08002 6.9375ZM2.08002 3.0625L4.51752 5.5C3.37168 6.375 1.99668 6.83333 0.392517 6.875C0.60085 5.4375 1.16335 4.16667 2.08002 3.0625ZM10.58 9.4375L9.14252 8L14.08 3.0625C15.1634 4.375 15.7467 5.89583 15.83 7.625C13.7884 7.66667 12.0384 8.27083 10.58 9.4375ZM8.08002 9.0625L9.51752 10.5C8.35085 11.9583 7.74668 13.7083 7.70502 15.75C5.97585 15.6667 4.45502 15.0833 3.14252 14L8.08002 9.0625ZM14.08 12.9375L11.6425 10.5C12.7884 9.625 14.1634 9.16667 15.7675 9.125C15.5592 10.5625 14.9967 11.8333 14.08 12.9375ZM5.58002 6.5625L7.01752 8L2.08002 12.9375C0.996684 11.625 0.41335 10.1042 0.330017 8.375C2.37168 8.35417 4.12168 7.75 5.58002 6.5625ZM9.20502 15.6875C9.24668 14.0833 9.70502 12.7083 10.58 11.5625L13.0175 14C11.9134 14.9167 10.6425 15.4792 9.20502 15.6875Z" fill="#B69430"/>
</svg>
