<svg width="17" height="16" viewBox="0 0 17 16" fill="none" xmlns="http://www.w3.org/2000/svg">
<path d="M5.73627 12.4375C5.73627 12.5 5.67377 12.5312 5.58002 12.5312C5.48627 12.5625 5.42377 12.5 5.42377 12.4375C5.42377 12.375 5.48627 12.3125 5.58002 12.3125C5.67377 12.3125 5.73627 12.375 5.73627 12.4375ZM4.76752 12.2812C4.79877 12.2188 4.89252 12.1875 4.98627 12.2188C5.08002 12.25 5.11127 12.3125 5.11127 12.375C5.08002 12.4375 4.98627 12.4688 4.92377 12.4375C4.83002 12.4375 4.76752 12.3438 4.76752 12.2812ZM6.17377 12.25C6.23627 12.2188 6.33002 12.2812 6.33002 12.3438C6.36127 12.4062 6.29877 12.4375 6.20502 12.4688C6.11127 12.5 6.01752 12.4688 6.01752 12.4062C6.01752 12.3125 6.08002 12.25 6.17377 12.25ZM8.20502 0.25C12.5488 0.25 16.08 3.5625 16.08 7.875C16.08 11.3438 13.955 14.3125 10.83 15.3438C10.4238 15.4375 10.2675 15.1875 10.2675 14.9688C10.2675 14.7188 10.2988 13.4062 10.2988 12.375C10.2988 11.625 10.0488 11.1562 9.76752 10.9062C11.5175 10.7188 13.3613 10.4688 13.3613 7.46875C13.3613 6.59375 13.0488 6.1875 12.5488 5.625C12.6113 5.40625 12.8925 4.59375 12.455 3.5C11.7988 3.28125 10.2988 4.34375 10.2988 4.34375C9.67377 4.15625 9.01752 4.09375 8.33002 4.09375C7.67377 4.09375 7.01752 4.15625 6.39252 4.34375C6.39252 4.34375 4.86127 3.3125 4.23627 3.5C3.79877 4.59375 4.04877 5.40625 4.14252 5.625C3.64252 6.1875 3.39252 6.59375 3.39252 7.46875C3.39252 10.4688 5.17377 10.7188 6.92377 10.9062C6.67377 11.125 6.48627 11.4688 6.42377 11.9688C5.95502 12.1875 4.83002 12.5312 4.14252 11.3125C3.70502 10.5625 2.92377 10.5 2.92377 10.5C2.17377 10.5 2.89252 11 2.89252 11C3.39252 11.2188 3.73627 12.125 3.73627 12.125C4.20502 13.5312 6.39252 13.0625 6.39252 13.0625C6.39252 13.7188 6.39252 14.7812 6.39252 15C6.39252 15.1875 6.26752 15.4375 5.86127 15.375C2.73627 14.3125 0.580017 11.3438 0.580017 7.875C0.580017 3.5625 3.89252 0.25 8.20502 0.25ZM3.61127 11.0312C3.64252 11 3.70502 11.0312 3.76752 11.0625C3.83002 11.125 3.83002 11.2188 3.79877 11.25C3.73627 11.2812 3.67377 11.25 3.61127 11.2188C3.58002 11.1562 3.54877 11.0625 3.61127 11.0312ZM3.26752 10.7812C3.29877 10.75 3.33002 10.75 3.39252 10.7812C3.45502 10.8125 3.48627 10.8438 3.48627 10.875C3.45502 10.9375 3.39252 10.9375 3.33002 10.9062C3.26752 10.875 3.23627 10.8438 3.26752 10.7812ZM4.26752 11.9062C4.33002 11.8438 4.42377 11.875 4.48627 11.9375C4.54877 12 4.54877 12.0938 4.51752 12.125C4.48627 12.1875 4.39252 12.1562 4.33002 12.0938C4.23627 12.0312 4.23627 11.9375 4.26752 11.9062ZM3.92377 11.4375C3.98627 11.4062 4.04877 11.4375 4.11127 11.5C4.14252 11.5625 4.14252 11.6562 4.11127 11.6875C4.04877 11.7188 3.98627 11.6875 3.92377 11.625C3.86127 11.5625 3.86127 11.4688 3.92377 11.4375Z" fill="#B69430"/>
</svg>
