<svg width="13" height="15" viewBox="0 0 13 15" fill="none" xmlns="http://www.w3.org/2000/svg">
<path d="M0.5 12.9077V5.47021H12.75V12.9077C12.75 13.2723 12.6224 13.5822 12.3672 13.8374C12.112 14.0926 11.8021 14.2202 11.4375 14.2202H1.8125C1.44792 14.2202 1.13802 14.0926 0.882812 13.8374C0.627604 13.5822 0.5 13.2723 0.5 12.9077ZM9.25 7.54834V8.64209C9.25 8.86084 9.35938 8.97021 9.57812 8.97021H10.6719C10.8906 8.97021 11 8.86084 11 8.64209V7.54834C11 7.32959 10.8906 7.22021 10.6719 7.22021H9.57812C9.35938 7.22021 9.25 7.32959 9.25 7.54834ZM9.25 11.0483V12.1421C9.25 12.3608 9.35938 12.4702 9.57812 12.4702H10.6719C10.8906 12.4702 11 12.3608 11 12.1421V11.0483C11 10.8296 10.8906 10.7202 10.6719 10.7202H9.57812C9.35938 10.7202 9.25 10.8296 9.25 11.0483ZM5.75 7.54834V8.64209C5.75 8.86084 5.85938 8.97021 6.07812 8.97021H7.17188C7.39062 8.97021 7.5 8.86084 7.5 8.64209V7.54834C7.5 7.32959 7.39062 7.22021 7.17188 7.22021H6.07812C5.85938 7.22021 5.75 7.32959 5.75 7.54834ZM5.75 11.0483V12.1421C5.75 12.3608 5.85938 12.4702 6.07812 12.4702H7.17188C7.39062 12.4702 7.5 12.3608 7.5 12.1421V11.0483C7.5 10.8296 7.39062 10.7202 7.17188 10.7202H6.07812C5.85938 10.7202 5.75 10.8296 5.75 11.0483ZM2.25 7.54834V8.64209C2.25 8.86084 2.35938 8.97021 2.57812 8.97021H3.67188C3.89062 8.97021 4 8.86084 4 8.64209V7.54834C4 7.32959 3.89062 7.22021 3.67188 7.22021H2.57812C2.35938 7.22021 2.25 7.32959 2.25 7.54834ZM2.25 11.0483V12.1421C2.25 12.3608 2.35938 12.4702 2.57812 12.4702H3.67188C3.89062 12.4702 4 12.3608 4 12.1421V11.0483C4 10.8296 3.89062 10.7202 3.67188 10.7202H2.57812C2.35938 10.7202 2.25 10.8296 2.25 11.0483ZM11.4375 1.97021C11.8021 1.97021 12.112 2.09782 12.3672 2.35303C12.6224 2.60824 12.75 2.91813 12.75 3.28271V4.59521H0.5V3.28271C0.5 2.91813 0.627604 2.60824 0.882812 2.35303C1.13802 2.09782 1.44792 1.97021 1.8125 1.97021H3.125V0.657715C3.125 0.530111 3.16146 0.42985 3.23438 0.356934C3.32552 0.265788 3.4349 0.220215 3.5625 0.220215H4.4375C4.5651 0.220215 4.66536 0.265788 4.73828 0.356934C4.82943 0.42985 4.875 0.530111 4.875 0.657715V1.97021H8.375V0.657715C8.375 0.530111 8.41146 0.42985 8.48438 0.356934C8.57552 0.265788 8.6849 0.220215 8.8125 0.220215H9.6875C9.8151 0.220215 9.91536 0.265788 9.98828 0.356934C10.0794 0.42985 10.125 0.530111 10.125 0.657715V1.97021H11.4375Z" fill="#F5BC0F"/>
</svg>
