<svg width="15" height="14" viewBox="0 0 15 14" fill="none" xmlns="http://www.w3.org/2000/svg">
<path d="M3.45502 14H0.548767V4.65625H3.45502V14ZM1.98627 3.40625C1.08002 3.40625 0.330017 2.625 0.330017 1.6875C0.330017 0.78125 1.08002 0.03125 1.98627 0.03125C2.92377 0.03125 3.67377 0.78125 3.67377 1.6875C3.67377 2.625 2.92377 3.40625 1.98627 3.40625ZM14.2988 14H11.4238V9.46875C11.4238 8.375 11.3925 7 9.89252 7C8.39252 7 8.17377 8.15625 8.17377 9.375V14H5.26752V4.65625H8.04877V5.9375H8.08002C8.48627 5.21875 9.42377 4.4375 10.83 4.4375C13.7675 4.4375 14.33 6.375 14.33 8.875V14H14.2988Z" fill="#B69430"/>
</svg>
