<svg width="17" height="14" viewBox="0 0 17 14" fill="none" xmlns="http://www.w3.org/2000/svg">
<path d="M14.6738 3.75C14.6738 3.90625 14.6738 4.03125 14.6738 4.1875C14.6738 8.53125 11.3925 13.5 5.36127 13.5C3.48627 13.5 1.76752 12.9688 0.330017 12.0312C0.580017 12.0625 0.830017 12.0938 1.11127 12.0938C2.64252 12.0938 4.04877 11.5625 5.17377 10.6875C3.73627 10.6562 2.51752 9.71875 2.11127 8.40625C2.33002 8.4375 2.51752 8.46875 2.73627 8.46875C3.01752 8.46875 3.33002 8.40625 3.58002 8.34375C2.08002 8.03125 0.955017 6.71875 0.955017 5.125V5.09375C1.39252 5.34375 1.92377 5.46875 2.45502 5.5C1.54877 4.90625 0.986267 3.90625 0.986267 2.78125C0.986267 2.15625 1.14252 1.59375 1.42377 1.125C3.04877 3.09375 5.48627 4.40625 8.20502 4.5625C8.14252 4.3125 8.11127 4.0625 8.11127 3.8125C8.11127 2 9.58002 0.53125 11.3925 0.53125C12.33 0.53125 13.1738 0.90625 13.7988 1.5625C14.5175 1.40625 15.2363 1.125 15.8613 0.75C15.6113 1.53125 15.1113 2.15625 14.4238 2.5625C15.08 2.5 15.7363 2.3125 16.2988 2.0625C15.8613 2.71875 15.2988 3.28125 14.6738 3.75Z" fill="#B69430"/>
</svg>
